HIERARCHY
ROOT hip
{
  OFFSET 63.9115 45.6495 86.1472
  CHANNELS 6 Xposition Yposition Zposition Zrotation Xrotation Yrotation
  JOINT abdomen
  {
    OFFSET 0 6.09653 0.699602
    CHANNELS 3 Zrotation Xrotation Yrotation
    JOINT chest
    {
      OFFSET 0 2.49857 -0.699602
      CHANNELS 3 Zrotation Xrotation Yrotation
      JOINT rCollar
      {
        OFFSET -1.49915 11.2936 -1.69903
        CHANNELS 3 Zrotation Xrotation Yrotation
        JOINT rShldr
        {
          OFFSET -4.89721 -0.299829 0.799545
          CHANNELS 3 Zrotation Xrotation Yrotation
          JOINT rForeArm
          {
            OFFSET -12.4216 -1.19922 0.931564
            CHANNELS 3 Zrotation Xrotation Yrotation
            JOINT rHand
            {
              OFFSET -9.86568 0.0998477 3.66582
              CHANNELS 3 Zrotation Xrotation Yrotation
              JOINT rRing1
              {
                OFFSET -3.39807 0.399775 0.299829
                CHANNELS 3 Zrotation Xrotation Yrotation
                JOINT rRing2
                {
                  OFFSET -1.29926 -0.199888 0.399772
                  CHANNELS 3 Zrotation Xrotation Yrotation
                  End Site
                  {
                    OFFSET -0.899487 -0.0999402 0.199886
                  }
                }
              }
              JOINT rMid1
              {
                OFFSET -2.99829 0.499717 1.09937
                CHANNELS 3 Zrotation Xrotation Yrotation
                JOINT rMid2
                {
                  OFFSET -1.45827 -0.0999391 0.600149
                  CHANNELS 3 Zrotation Xrotation Yrotation
                  End Site
                  {
                    OFFSET -1.0403 -0.0999474 0.399282
                  }
                }
              }
              JOINT rIndex1
              {
                OFFSET -2.69847 0.399775 2.09881
                CHANNELS 3 Zrotation Xrotation Yrotation
                JOINT rIndex2
                {
                  OFFSET -1.33823 -0.200883 0.6843
                  CHANNELS 3 Zrotation Xrotation Yrotation
                  End Site
                  {
                    OFFSET -0.760569 0.00099747 0.415074
                  }
                }
              }
              JOINT rPinky1
              {
                OFFSET -3.29812 0.0999423 -0.399772
                CHANNELS 3 Zrotation Xrotation Yrotation
                JOINT rPinky2
                {
                  OFFSET -0.899492 -0.0999405 0
                  CHANNELS 3 Zrotation Xrotation Yrotation
                  End Site
                  {
                    OFFSET -0.999429 -0.0999421 0
                  }
                }
              }
              JOINT rThumb1
              {
                OFFSET -0.399773 -0.39977 1.19932
                CHANNELS 3 Zrotation Xrotation Yrotation
                JOINT rThumb2
                {
                  OFFSET -0.998132 0 1.47145
                  CHANNELS 3 Zrotation Xrotation Yrotation
                  End Site
                  {
                    OFFSET -0.977841 -0.278837 0.829828
                  }
                }
              }
            }
          }
        }
      }
      JOINT lCollar
      {
        OFFSET 1.49915 11.2936 -1.69903
        CHANNELS 3 Zrotation Xrotation Yrotation
        JOINT lShldr
        {
          OFFSET 4.89721 -0.299833 0.799545
          CHANNELS 3 Zrotation Xrotation Yrotation
          JOINT lForeArm
          {
            OFFSET 12.4216 -1.19922 0.931564
            CHANNELS 3 Zrotation Xrotation Yrotation
            JOINT lHand
            {
              OFFSET 9.86568 0.0998482 3.66582
              CHANNELS 3 Zrotation Xrotation Yrotation
              JOINT lRing1
              {
                OFFSET 3.39806 0.399773 0.299829
                CHANNELS 3 Zrotation Xrotation Yrotation
                JOINT lRing2
                {
                  OFFSET 1.29926 -0.199886 0.399772
                  CHANNELS 3 Zrotation Xrotation Yrotation
                  End Site
                  {
                    OFFSET 0.899489 -0.0999425 0.199886
                  }
                }
              }
              JOINT lPinky1
              {
                OFFSET 3.29812 0.0999421 -0.399772
                CHANNELS 3 Zrotation Xrotation Yrotation
                JOINT lPinky2
                {
                  OFFSET 0.899488 -0.0999427 0
                  CHANNELS 3 Zrotation Xrotation Yrotation
                  End Site
                  {
                    OFFSET 0.999427 -0.0999418 0
                  }
                }
              }
              JOINT lMid1
              {
                OFFSET 2.99829 0.499714 1.09937
                CHANNELS 3 Zrotation Xrotation Yrotation
                JOINT lMid2
                {
                  OFFSET 1.45827 -0.0999388 0.600149
                  CHANNELS 3 Zrotation Xrotation Yrotation
                  End Site
                  {
                    OFFSET 1.04031 -0.0999473 0.399282
                  }
                }
              }
              JOINT lThumb1
              {
                OFFSET 0.399772 -0.399773 1.19932
                CHANNELS 3 Zrotation Xrotation Yrotation
                JOINT lThumb2
                {
                  OFFSET 0.99813 0 1.47145
                  CHANNELS 3 Zrotation Xrotation Yrotation
                  End Site
                  {
                    OFFSET 0.97784 -0.27884 0.829828
                  }
                }
              }
              JOINT lIndex1
              {
                OFFSET 2.69846 0.399775 2.09881
                CHANNELS 3 Zrotation Xrotation Yrotation
                JOINT lIndex2
                {
                  OFFSET 1.33823 -0.200884 0.6843
                  CHANNELS 3 Zrotation Xrotation Yrotation
                  End Site
                  {
                    OFFSET 0.760567 0.00099574 0.415074
                  }
                }
              }
            }
          }
        }
      }
      JOINT neck
      {
        OFFSET 0 12.4929 -0.499715
        CHANNELS 3 Zrotation Xrotation Yrotation
        JOINT head
        {
          OFFSET 0 3.59795 0.299829
          CHANNELS 3 Zrotation Xrotation Yrotation
          JOINT rightEye
          {
            OFFSET -1.19932 3.69789 3.19818
            CHANNELS 3 Zrotation Xrotation Yrotation
            End Site
            {
              OFFSET 0 0 0
            }
          }
          JOINT leftEye
          {
            OFFSET 1.19932 3.69789 3.19818
            CHANNELS 3 Zrotation Xrotation Yrotation
            End Site
            {
              OFFSET 0 0 0
            }
          }
        }
      }
    }
  }
  JOINT rButtock
  {
    OFFSET -4.19761 -0.599656 -0.299829
    CHANNELS 3 Zrotation Xrotation Yrotation
    JOINT rThigh
    {
      OFFSET 0 -1.49915 0
      CHANNELS 3 Zrotation Xrotation Yrotation
      JOINT rShin
      {
        OFFSET 0.699602 -17.6899 -1.09938
        CHANNELS 3 Zrotation Xrotation Yrotation
        JOINT rFoot
        {
          OFFSET -0.699602 -18.0897 -0.699602
          CHANNELS 3 Zrotation Xrotation Yrotation
          End Site
          {
            OFFSET 0 -2.09881 5.59681
          }
        }
      }
    }
  }
  JOINT lButtock
  {
    OFFSET 4.19761 -0.599656 -0.299829
    CHANNELS 3 Zrotation Xrotation Yrotation
    JOINT lThigh
    {
      OFFSET 0 -1.49914 0
      CHANNELS 3 Zrotation Xrotation Yrotation
      JOINT lShin
      {
        OFFSET -0.699602 -17.6899 -1.09937
        CHANNELS 3 Zrotation Xrotation Yrotation
        JOINT lFoot
        {
          OFFSET 0.699602 -18.0897 -0.699602
          CHANNELS 3 Zrotation Xrotation Yrotation
          End Site
          {
            OFFSET 0 -2.0988 5.59681
          }
        }
      }
    }
  }
}
MOTION
Frames:	9
Frame Time:	0.0333333
29.9416 46.7519 -112.987 1.3139 5.02493 -54.2326 -0.00975517 -0.00975351 -0.00975351 -3.47776 -8.49028 -1.86211 0.149813 -0.28102 3.83243 81.0671 9.11218 -18.8428 -13.7533 9.70152 45.9435 3.79183 1.61971 4.46291 -0.00770581 -0.00788924 -0.0111498 2.42724 -0.497531 4.4329 -0.00609359 -0.00836005 -0.0103539 -0.219774 0.404224 1.44943 -0.00542281 -0.00718716 -0.0109602 8.6059 -0.00181146 -1.79828 -0.00972242 -0.00830664 -0.0110365 0.62967 -0.00953165 -0.000952808 4.66517e-005 -0.045626 -0.00979214 -9.39785 -7.91692 -0.663799 -5.85071 1.3606 -11.7305 -74.7912 5.5411 21.5664 10.2452 10.4227 -39.358 3.14977 -1.20058 -0.77366 -0.0119141 -0.010955 -0.00814197 -2.42834 -0.502432 -4.4324 -0.00991893 -0.0110088 -0.00833112 -0.629806 -0.00995831 0.0010087 -0.0134417 -0.00969646 -0.00912631 0.204764 0.414792 -1.45043 4.09032e-005 -0.0456252 -0.00980861 9.41156 -7.94154 0.625637 -0.0141822 -0.0100536 -0.00836086 -8.62278 -0.0233167 1.79819 6.58909 8.66574 0.68259 -22.0623 -15.9008 -53.7232 0 0 0 0 0 0 -0.00975517 -0.00969887 -0.00983547 5.83171 -2.93602 0.0413442 0.126057 5.98411 3.08463 -10.913 16.9199 1.37917 -0.00975517 -0.00983547 -0.00969887 15.3187 -12.4566 36.5743 -0.22685 6.71963 -4.89007 4.89029 34.1188 -0.326459 
30.037 46.7045 -113.321 0.824004 4.60928 -52.5909 -0.00975517 -0.00975351 -0.00975351 -3.35676 -8.02049 -1.49842 0.377992 -0.251211 4.04009 80.3954 9.06889 -18.5983 -14.0358 9.27859 47.2623 3.3262 1.43437 4.66426 -0.00770581 -0.00788924 -0.0111498 2.42724 -0.497531 4.4329 -0.00609359 -0.00836005 -0.0103539 -0.219774 0.404224 1.44943 -0.00542281 -0.00718716 -0.0109602 8.60592 -0.00181146 -1.79828 -0.00972242 -0.00830664 -0.0110365 0.62967 -0.00953165 -0.000952808 4.66517e-005 -0.045626 -0.00979214 -9.39785 -7.91692 -0.663799 -6.22238 1.3834 -11.0712 -74.5071 5.01141 21.6477 9.50559 10.1162 -38.9147 4.31107 -1.6327 -0.519469 -0.0119141 -0.010955 -0.00814197 -2.42834 -0.502432 -4.4324 -0.00991893 -0.0110088 -0.00833112 -0.629806 -0.00995831 0.0010087 -0.0134417 -0.00969646 -0.00912631 0.204764 0.414792 -1.45043 4.09032e-005 -0.0456252 -0.00980861 9.41156 -7.94154 0.625637 -0.0141822 -0.0100536 -0.00836086 -8.62278 -0.0233167 1.79819 6.37419 8.15465 0.402836 -21.5782 -16.4041 -50.1439 0 0 0 0 0 0 -0.00975517 -0.00969887 -0.00983547 5.96387 -2.69156 -1.76535 0.125228 6.08567 3.05455 -10.2714 16.87 1.25675 -0.00975517 -0.00983547 -0.00969887 15.505 -12.5592 38.5791 -0.244461 6.79823 -5.33544 5.01607 34.5273 -0.371615 
30.1532 46.6852 -113.674 0.257386 4.4177 -51.5026 -0.00975517 -0.00975351 -0.00975351 -3.05687 -7.48275 -1.12499 0.64432 -0.209891 4.5672 79.6465 8.35881 -18.0525 -14.0146 8.98233 47.943 2.85926 1.22649 4.35818 -0.00770581 -0.00788924 -0.0111498 2.42724 -0.497531 4.4329 -0.00609359 -0.00836005 -0.0103539 -0.219774 0.404224 1.44943 -0.00542281 -0.00718716 -0.0109602 8.60595 -0.00181146 -1.79828 -0.00972242 -0.00830664 -0.0110365 0.62967 -0.00953165 -0.000952808 4.66517e-005 -0.045626 -0.00979214 -9.39785 -7.91692 -0.663799 -5.83396 1.27914 -10.5561 -74.906 4.51911 21.4843 9.4408 10.2677 -38.3976 4.86247 -1.82884 -0.214557 -0.0119141 -0.010955 -0.00814197 -2.42834 -0.502432 -4.4324 -0.00991893 -0.0110088 -0.00833112 -0.629806 -0.00995831 0.0010087 -0.0134417 -0.00969646 -0.00912631 0.204764 0.414792 -1.45043 4.09032e-005 -0.0456252 -0.00980861 9.41156 -7.94154 0.625637 -0.0141822 -0.0100536 -0.00836086 -8.62278 -0.0233167 1.79819 6.26317 7.57729 0.105755 -20.5439 -16.7007 -45.7328 0 0 0 0 0 0 -0.00975517 -0.00969887 -0.00983547 6.36216 -2.56725 -3.29845 0.128508 6.07192 3.13845 -9.7509 17.2109 1.17576 -0.00975517 -0.00983547 -0.00969887 15.964 -12.6706 40.178 -0.23268 6.89049 -5.01444 5.22883 34.4929 -0.444813 
30.2483 46.6898 -114.042 -0.132701 4.48542 -50.7212 -0.00975517 -0.00975351 -0.00975351 -2.80297 -7.16706 -0.947074 0.836012 -0.174777 5.12954 79.1788 7.53868 -17.4473 -13.8431 8.64848 48.5641 2.44259 1.03003 3.70199 -0.00770581 -0.00788924 -0.0111498 2.42724 -0.497531 4.4329 -0.00609359 -0.00836005 -0.0103539 -0.219774 0.404224 1.44943 -0.00542281 -0.00718716 -0.0109602 8.60597 -0.00181146 -1.79828 -0.00972242 -0.00830664 -0.0110365 0.62967 -0.00953165 -0.000952808 4.66517e-005 -0.045626 -0.00979214 -9.39785 -7.91692 -0.663799 -5.07015 1.13584 -10.3982 -75.4781 3.84056 21.3597 9.218 10.3873 -37.6842 5.72727 -2.13039 0.252933 -0.0119141 -0.010955 -0.00814197 -2.42834 -0.502432 -4.4324 -0.00991893 -0.0110088 -0.00833112 -0.629806 -0.00995831 0.0010087 -0.0134417 -0.00969646 -0.00912631 0.204764 0.414792 -1.45043 4.09032e-005 -0.0456252 -0.00980861 9.41156 -7.94154 0.625637 -0.0141822 -0.0100536 -0.00836086 -8.62278 -0.0233167 1.79819 6.2919 7.24307 -0.0426594 -19.4861 -17.2377 -41.113 0 0 0 0 0 0 -0.00975517 -0.00969887 -0.00983547 6.92295 -2.74321 -4.57102 0.1386 6.05851 3.39324 -9.6651 17.4582 1.17092 -0.00975517 -0.00983547 -0.00969887 16.5859 -13.0468 41.4169 -0.226314 7.00006 -4.83291 5.53496 34.4672 -0.550147 
30.3346 46.6721 -114.361 -0.263672 4.46163 -50.0372 -0.00975517 -0.00975351 -0.00975351 -2.56547 -7.07921 -0.938921 1.01039 -0.141479 5.6269 78.5668 6.80386 -17.3808 -13.3785 8.11385 49.3989 2.31548 0.971299 3.50341 -0.00770581 -0.00788924 -0.0111498 2.42724 -0.497531 4.4329 -0.00609359 -0.00836005 -0.0103539 -0.219774 0.404224 1.44943 -0.00542281 -0.00718716 -0.0109602 8.60599 -0.00181146 -1.79828 -0.00972242 -0.00830664 -0.0110365 0.62967 -0.00953165 -0.000952808 4.66517e-005 -0.045626 -0.00979214 -9.39785 -7.91692 -0.663799 -4.7533 1.07252 -10.2528 -75.7752 3.48055 21.5881 8.53662 9.99768 -37.4898 6.21811 -2.27416 0.983781 -0.0119141 -0.010955 -0.00814197 -2.42834 -0.502432 -4.4324 -0.00991893 -0.0110088 -0.00833112 -0.629806 -0.00995831 0.0010087 -0.0134417 -0.00969646 -0.00912631 0.204764 0.414792 -1.45043 4.09032e-005 -0.0456252 -0.00980861 9.41156 -7.94154 0.625637 -0.0141822 -0.0100536 -0.00836086 -8.62278 -0.0233167 1.79819 6.08701 7.15387 -0.0213187 -18.2961 -18.1502 -36.8486 0 0 0 0 0 0 -0.00975517 -0.00969887 -0.00983547 7.21355 -3.06762 -5.59344 0.146523 6.15675 3.58311 -9.58099 17.54 1.15853 -0.00975517 -0.00983547 -0.00969887 16.9239 -13.5459 42.2629 -0.220166 7.06955 -4.66358 5.71202 34.9696 -0.617168 
30.4262 46.6488 -114.612 -0.582031 4.44543 -49.2337 -0.00975517 -0.00975351 -0.00975351 -2.23743 -6.97249 -1.01254 1.2639 -0.108888 5.59897 77.9905 6.34369 -17.2712 -14.5445 8.46718 49.7221 3.33687 1.41762 4.18748 -0.00770581 -0.00788924 -0.0111498 2.42724 -0.497531 4.4329 -0.00609359 -0.00836005 -0.0103539 -0.219774 0.404224 1.44943 -0.00542281 -0.00718716 -0.0109602 8.60601 -0.00181146 -1.79828 -0.00972242 -0.00830664 -0.0110365 0.62967 -0.00953165 -0.000952808 4.66517e-005 -0.045626 -0.00979214 -9.39785 -7.91692 -0.663799 -4.50973 1.02464 -10.145 -75.9148 3.32389 21.7929 8.12343 9.87969 -37.0303 6.52245 -2.37924 1.07928 -0.0119141 -0.010955 -0.00814197 -2.42834 -0.502432 -4.4324 -0.00991893 -0.0110088 -0.00833112 -0.629806 -0.00995831 0.0010087 -0.0134417 -0.00969646 -0.00912631 0.204764 0.414792 -1.45043 4.09032e-005 -0.0456252 -0.00980861 9.41156 -7.94154 0.625637 -0.0141822 -0.0100536 -0.00836086 -8.62278 -0.0233167 1.79819 5.90625 7.05393 0.0799111 -16.9993 -18.6325 -32.8445 0 0 0 0 0 0 -0.00975517 -0.00969887 -0.00983547 7.55164 -3.21627 -6.38432 0.140398 6.20678 3.42437 -9.31952 18.0014 1.12819 -0.00975517 -0.00983547 -0.00969887 17.2754 -13.8993 42.6694 -0.227592 7.15858 -4.84018 5.86132 35.4277 -0.675447 
30.5237 46.6111 -114.838 -0.928634 4.49949 -48.869 -0.00975517 -0.00975351 -0.00975351 -1.73015 -6.88658 -0.885221 1.47281 -0.077067 5.76604 77.6983 5.43497 -17.244 -14.5658 8.59564 49.4381 2.74366 1.18452 4.51746 -0.00770581 -0.00788924 -0.0111498 2.42724 -0.497531 4.4329 -0.00609359 -0.00836005 -0.0103539 -0.219774 0.404224 1.44943 -0.00542281 -0.00718716 -0.0109602 8.60604 -0.00181146 -1.79828 -0.00972242 -0.00830664 -0.0110365 0.62967 -0.00953165 -0.000952808 4.66517e-005 -0.045626 -0.00979214 -9.39785 -7.91692 -0.663799 -4.0693 0.925325 -9.67361 -76.2613 4.04399 21.7911 7.65995 9.75121 -36.4786 6.26142 -2.29931 0.800985 -0.0119141 -0.010955 -0.00814197 -2.42834 -0.502432 -4.4324 -0.00991893 -0.0110088 -0.00833112 -0.629806 -0.00995831 0.0010087 -0.0134417 -0.00969646 -0.00912631 0.204764 0.414792 -1.45043 4.09032e-005 -0.0456252 -0.00980861 9.41156 -7.94154 0.625637 -0.0141822 -0.0100536 -0.00836086 -8.62278 -0.0233167 1.79819 5.66525 6.95349 -0.0116297 -15.5358 -19.2413 -28.281 0 0 0 0 0 0 -0.00975517 -0.00969887 -0.00983547 7.9109 -3.34868 -6.97883 0.15463 6.25546 3.7785 -9.10514 18.4702 1.10547 -0.00975517 -0.00983547 -0.00969887 17.7132 -14.1358 42.6627 -0.223291 7.24059 -4.71625 5.95774 35.7608 -0.714306 
30.6258 46.5683 -115.044 -1.23776 4.59162 -48.8338 -0.00975517 -0.00975351 -0.00975351 -1.16789 -6.80615 -0.648022 1.8227 -0.0275921 5.87024 77.2989 4.53925 -17.331 -14.6963 8.77631 49.1433 2.11262 0.928925 4.7645 -0.00770581 -0.00788924 -0.0111498 2.42724 -0.497531 4.4329 -0.00609359 -0.00836005 -0.0103539 -0.219774 0.404224 1.44943 -0.00542281 -0.00718716 -0.0109602 8.60606 -0.00181146 -1.79828 -0.00972242 -0.00830664 -0.0110365 0.62967 -0.00953165 -0.000952808 4.66517e-005 -0.045626 -0.00979214 -9.39785 -7.91692 -0.663799 -3.70722 0.852645 -9.41585 -76.499 5.02308 22.0325 7.20376 9.40964 -36.5507 5.3134 -1.9739 0.338345 -0.0119141 -0.010955 -0.00814197 -2.42834 -0.502432 -4.4324 -0.00991893 -0.0110088 -0.00833112 -0.629806 -0.00995831 0.0010087 -0.0134417 -0.00969646 -0.00912631 0.204764 0.414792 -1.45043 4.09032e-005 -0.0456252 -0.00980861 9.41156 -7.94154 0.625637 -0.0141822 -0.0100536 -0.00836086 -8.62278 -0.0233167 1.79819 5.40028 6.84915 -0.206968 -13.9923 -19.975 -23.5941 0 0 0 0 0 0 -0.00975517 -0.00969887 -0.00983547 8.27157 -3.45927 -7.43253 0.171528 6.23715 4.20969 -9.15326 18.649 1.12257 -0.00975517 -0.00983547 -0.00969887 18.1115 -14.289 42.292 -0.231136 7.30572 -4.90814 6.00515 35.6419 -0.729475 
30.7145 46.5318 -115.238 -1.44271 4.61544 -48.7947 -0.00975517 -0.00975351 -0.00975351 -0.78822 -6.76794 -0.537777 2.57884 0.0841877 6.16714 76.5884 3.68436 -17.6784 -15.0095 9.00972 48.9168 2.4511 1.06935 4.7148 -0.00770581 -0.00788924 -0.0111498 2.42724 -0.497531 4.4329 -0.00609359 -0.00836005 -0.0103539 -0.219774 0.404224 1.44943 -0.00542281 -0.00718716 -0.0109602 8.60608 -0.00181146 -1.79828 -0.00972242 -0.00830664 -0.0110365 0.62967 -0.00953165 -0.000952808 4.66517e-005 -0.045626 -0.00979214 -9.39785 -7.91692 -0.663799 -3.28395 0.785189 -9.46793 -76.7891 5.74429 22.3445 6.98712 9.18802 -36.7714 3.81923 -1.44049 -0.271938 -0.0119141 -0.010955 -0.00814197 -2.42834 -0.502432 -4.4324 -0.00991893 -0.0110088 -0.00833112 -0.629806 -0.00995831 0.0010087 -0.0134417 -0.00969646 -0.00912631 0.204764 0.414792 -1.45043 4.09032e-005 -0.0456252 -0.00980861 9.41156 -7.94154 0.625637 -0.0141822 -0.0100536 -0.00836086 -8.62278 -0.0233167 1.79819 5.18277 6.80086 -0.283121 -12.0785 -20.4703 -18.9176 0 0 0 0 0 0 -0.00975517 -0.00969887 -0.00983547 8.53406 -3.53087 -7.80859 0.182793 6.14464 4.50739 -9.23599 18.7874 1.14514 -0.00975517 -0.00983547 -0.00969887 18.3447 -14.4514 41.6641 -0.264481 7.34369 -5.77105 6.067 35.1532 -0.744007 
